<svg aria-hidden="true" style="position:absolute;width:0;height:0;overflow:hidden"><defs><symbol id="mail" viewBox="0 0 24 24"><path d="m3 7.921 8.427 5.899c.34.235.795.246 1.147 0L21 7.921V18c0 .272-.11.521-.295.705S20.272 19 20 19H4c-.272 0-.521-.11-.705-.295S3 18.272 3 18zM1 5.983V18c0 .828.34 1.579.88 2.12S3.172 21 4 21h16c.828 0 1.579-.34 2.12-.88S23 18.828 23 18V5.982a2.995 2.995 0 0 0-.88-2.102A2.998 2.998 0 0 0 20 3H4c-.828 0-1.579.34-2.12.88A2.995 2.995 0 0 0 1 5.983zm19.894-.429L12 11.779 3.106 5.554a.999.999 0 0 1 .188-.259A.994.994 0 0 1 4 5h16a1.016 1.016 0 0 1 .893.554z"/></symbol><symbol id="map-pin" viewBox="0 0 24 24"><path d="M22 10c0-2.761-1.12-5.263-2.929-7.071S14.761 0 12 0 6.737 1.12 4.929 2.929 2 7.239 2 10c0 .569.053 1.128.15 1.676.274 1.548.899 3.004 1.682 4.32 2.732 4.591 7.613 7.836 7.613 7.836.331.217.765.229 1.109 0 0 0 4.882-3.245 7.613-7.836.783-1.316 1.408-2.772 1.682-4.32A9.506 9.506 0 0 0 22 10zm-2 0c0 .444-.041.887-.119 1.328-.221 1.25-.737 2.478-1.432 3.646-1.912 3.214-5.036 5.747-6.369 6.74-1.398-.916-4.588-3.477-6.53-6.74-.695-1.168-1.211-2.396-1.432-3.646A7.713 7.713 0 0 1 4 10c0-2.209.894-4.208 2.343-5.657S9.791 2 12 2s4.208.894 5.657 2.343S20 7.791 20 10zm-4 0c0-1.104-.449-2.106-1.172-2.828a3.994 3.994 0 0 0-5.656 0 3.994 3.994 0 0 0 0 5.656 3.994 3.994 0 0 0 5.656 0A3.994 3.994 0 0 0 16 10zm-2 0c0 .553-.223 1.051-.586 1.414S12.553 12 12 12s-1.051-.223-1.414-.586S10 10.553 10 10s.223-1.051.586-1.414S11.447 8 12 8s1.051.223 1.414.586S14 9.447 14 10z"/></symbol></defs></svg>